<?xml version="1.0" encoding="iso-8859-1"?>
<!-- Generator: Adobe Illustrator 19.0.0, SVG Export Plug-In . SVG Version: 6.00 Build 0)  -->
<svg version="1.1" id="Layer_1" xmlns="http://www.w3.org/2000/svg" xmlns:xlink="http://www.w3.org/1999/xlink" x="0px" y="0px"
	 viewBox="0 0 512 512" style="enable-background:new 0 0 512 512;" xml:space="preserve">
<g>
	<g>
		<path d="M508.94,56.189L455.811,3.061C453.851,1.101,451.193,0,448.422,0h-57.585H149.545H84.26H10.449C4.678,0,0,4.678,0,10.449
			v491.102C0,507.322,4.678,512,10.449,512H84.26c0.014,0,0.027-0.002,0.041-0.002h306.497c0.014,0,0.027,0.002,0.041,0.002h110.713
			c5.771,0,10.449-4.678,10.449-10.449V63.578C512,60.807,510.899,58.149,508.94,56.189z M159.994,20.898h220.394v143.75H159.994
			V20.898z M94.708,20.898h44.387v143.75H94.708V20.898z M380.388,491.1H94.708V266.445h285.679V491.1z M491.102,491.102h-89.815
			V255.996c0-5.771-4.678-10.449-10.449-10.449h-0.001H84.26c-5.771,0-10.449,4.678-10.449,10.449v235.106H20.898V20.898h52.913
			v154.199c0,5.771,4.678,10.449,10.449,10.449h65.285h241.292c5.771,0,10.449-4.678,10.449-10.449V20.898h42.808l47.008,47.008
			V491.102z"/>
	</g>
</g>
<g>
	<g>
		<path d="M328.385,32.643c-5.771,0-10.449,4.678-10.449,10.449v99.356c0,5.771,4.678,10.449,10.449,10.449
			s10.449-4.678,10.449-10.449V43.092C338.834,37.321,334.156,32.643,328.385,32.643z"/>
	</g>
</g>
<g>
	<g>
		<path d="M328.386,428.653h-27.804c-5.771,0-10.449,4.678-10.449,10.449c0,5.771,4.678,10.449,10.449,10.449h27.804
			c5.771,0,10.449-4.678,10.449-10.449C338.835,433.331,334.157,428.653,328.386,428.653z"/>
	</g>
</g>
<g>
	<g>
		<path d="M267.494,428.653H146.71c-5.771,0-10.449,4.678-10.449,10.449c0,5.771,4.678,10.449,10.449,10.449h120.784
			c5.771,0,10.449-4.678,10.449-10.449C277.943,433.331,273.265,428.653,267.494,428.653z"/>
	</g>
</g>
<g>
	<g>
		<path d="M328.386,371.877h-27.804c-5.771,0-10.449,4.678-10.449,10.449c0,5.771,4.678,10.449,10.449,10.449h27.804
			c5.771,0,10.449-4.678,10.449-10.449C338.835,376.555,334.157,371.877,328.386,371.877z"/>
	</g>
</g>
<g>
	<g>
		<path d="M267.494,371.877H146.71c-5.771,0-10.449,4.678-10.449,10.449c0,5.771,4.678,10.449,10.449,10.449h120.784
			c5.771,0,10.449-4.678,10.449-10.449C277.943,376.555,273.265,371.877,267.494,371.877z"/>
	</g>
</g>
<g>
	<g>
		<path d="M328.386,315.103h-27.804c-5.771,0-10.449,4.678-10.449,10.449c0,5.771,4.678,10.449,10.449,10.449h27.804
			c5.771,0,10.449-4.678,10.449-10.449C338.835,319.781,334.157,315.103,328.386,315.103z"/>
	</g>
</g>
<g>
	<g>
		<path d="M267.494,315.103H146.71c-5.771,0-10.449,4.678-10.449,10.449c0,5.771,4.678,10.449,10.449,10.449h120.784
			c5.771,0,10.449-4.678,10.449-10.449C277.943,319.781,273.265,315.103,267.494,315.103z"/>
	</g>
</g>
<g>
</g>
<g>
</g>
<g>
</g>
<g>
</g>
<g>
</g>
<g>
</g>
<g>
</g>
<g>
</g>
<g>
</g>
<g>
</g>
<g>
</g>
<g>
</g>
<g>
</g>
<g>
</g>
<g>
</g>
</svg>
